<svg width="50" height="50" viewBox="0 0 50 50" xmlns="http://www.w3.org/2000/svg" xml:space="preserve" preserveAspectRatio="none meet">
  <path id="socialFacebook" style="fill: #FFF;" d="M25,0C11.2,0,0,11.2,0,25s11.2,25,25,25s25-11.2,25-25S38.8,0,25,0z M32.2,26H27v15h-6V26 h-3v-5h3v-4.9c0-0.9,0.3-1.7,0.6-2.6c0.3-0.9,0.8-1.6,1.4-2.3c0.6-0.7,1.4-1.2,2.3-1.5s2.1-0.5,3.3-0.4c0.4,0,0.8,0,1.2,0 c0.4,0,0.7,0.1,1.2,0.1c0.4,0,0.8-0.2,1.3-0.1L32.2,14H29c-0.9,0-1.4,0.4-1.7,0.8c-0.2,0.4-0.3,1.2-0.3,2V21h5.4L32.2,26z"/>
</svg>
